<?xml version="1.0" encoding="utf-8"?>
<!-- Generator: Adobe Illustrator 28.1.0, SVG Export Plug-In . SVG Version: 6.00 Build 0)  -->
<svg version="1.1" id="Ebene_1" xmlns="http://www.w3.org/2000/svg" xmlns:xlink="http://www.w3.org/1999/xlink" x="0px" y="0px"
	 viewBox="0 0 500.7 76.9" style="enable-background:new 0 0 500.7 76.9;" xml:space="preserve">
<style type="text/css">
	.st0{fill:#FFFFFF;}
	.st1{fill-rule:evenodd;clip-rule:evenodd;fill:#FFFFFF;}
</style>
<g id="logo">
	<g id="claim">
		<path class="st0" d="M114.8,72.9V59.4h8c1.4,0,2.8,0,4.1,0.2c1.2,0.1,2.3,0.5,3.4,1c1.1,0.5,2.1,1.3,2.8,2.3
			c1.1,1.8,1.2,4,0.3,5.9c-0.4,0.8-0.9,1.5-1.6,2c-0.6,0.5-1.4,0.9-2.1,1.1c-0.9,0.3-1.8,0.6-2.8,0.7c-1.2,0.2-2.5,0.2-3.7,0.2
			L114.8,72.9z M117.8,71.3h5c1.2,0,2.4-0.1,3.6-0.2c0.7-0.1,1.4-0.4,2.1-0.7c0.7-0.4,1.3-1,1.7-1.7c0.4-0.8,0.6-1.7,0.6-2.6
			c0.1-1.2-0.4-2.4-1.2-3.3c-0.8-0.8-1.8-1.3-2.9-1.5c-1.3-0.2-2.7-0.3-4-0.3h-4.9L117.8,71.3z"/>
		<path class="st0" d="M136.2,61.3v-1.9h2.9v1.9L136.2,61.3z M136.2,72.9v-9.8h2.9v9.8L136.2,72.9z"/>
		<path class="st0" d="M141.3,73.7l2.8,0.2c0.1,0.5,0.5,0.9,1,1.1c0.9,0.3,1.9,0.5,2.9,0.5c1,0,2.1-0.1,3.1-0.5
			c0.6-0.2,1.1-0.7,1.4-1.3c0.2-0.7,0.3-1.4,0.2-2.1c-1.4,0.9-3,1.3-4.7,1.3c-1.9,0.1-3.8-0.4-5.4-1.5c-1.9-1.3-2.5-3.9-1.2-5.8
			c0.1-0.1,0.1-0.2,0.2-0.3c0.7-0.8,1.5-1.5,2.5-1.8c1.2-0.5,2.6-0.7,3.9-0.7c1.7-0.1,3.5,0.4,4.9,1.4v-1.2h2.6v8.5
			c0.1,1.1-0.2,2.3-0.8,3.2c-0.7,0.7-1.6,1.3-2.5,1.5c-1.4,0.4-2.8,0.6-4.3,0.6c-1.7,0.1-3.3-0.2-4.9-0.8
			C142.1,75.8,141.3,74.9,141.3,73.7z M143.7,67.9c-0.1,1.1,0.4,2.2,1.3,2.8c1,0.6,2.1,0.9,3.3,0.9c1.2,0,2.3-0.3,3.3-0.9
			c0.9-0.6,1.4-1.7,1.3-2.8c0.1-1.1-0.5-2.1-1.4-2.7c-1-0.6-2.1-1-3.3-0.9c-1.1,0-2.3,0.3-3.2,0.9C144.1,65.8,143.6,66.8,143.7,67.9
			z"/>
		<path class="st0" d="M158.3,61.3v-1.9h2.9v1.9L158.3,61.3z M158.3,72.9v-9.8h2.9v9.8L158.3,72.9z"/>
		<path class="st0" d="M170.1,71.4l0.4,1.5c-0.7,0.1-1.4,0.1-2.1,0.2c-0.8,0-1.6-0.1-2.4-0.3c-0.5-0.1-0.9-0.4-1.2-0.8
			c-0.3-0.6-0.4-1.3-0.4-2v-5.6h-2.1v-1.3h2.1v-2.4l2.8-1v3.4h2.9v1.3h-2.9v5.7c0,0.3,0,0.6,0.1,0.9c0.1,0.2,0.3,0.3,0.5,0.3
			c0.3,0.1,0.7,0.1,1,0.1C169.1,71.5,169.6,71.5,170.1,71.4z"/>
		<path class="st0" d="M182.2,71.7c-1,0.5-2,0.9-3.1,1.1c-1,0.2-2.1,0.3-3.1,0.3c-1.5,0.1-2.9-0.2-4.3-0.8c-0.8-0.3-1.4-1.1-1.5-2
			c0-0.5,0.2-1,0.6-1.3c0.4-0.4,0.9-0.8,1.5-1c0.6-0.3,1.3-0.4,2-0.5c0.6-0.1,1.4-0.2,2.5-0.2c1.7-0.1,3.4-0.3,5.1-0.6
			c0-0.2,0-0.4,0-0.4c0-0.6-0.3-1.2-0.8-1.4c-1-0.4-2.1-0.6-3.2-0.6c-1-0.1-2,0.1-3,0.4c-0.6,0.3-1.2,0.8-1.4,1.5l-2.7-0.1
			c0.2-0.7,0.7-1.3,1.2-1.7c0.8-0.5,1.6-0.8,2.5-1c1.3-0.2,2.5-0.4,3.8-0.3c1.2,0,2.4,0.1,3.5,0.3c0.7,0.1,1.4,0.4,2,0.7
			c0.4,0.3,0.7,0.7,0.9,1.1c0.1,0.5,0.2,1,0.1,1.5v2.2c0,1,0,2,0.2,2.9c0.1,0.4,0.4,0.9,0.7,1.2h-3
			C182.5,72.6,182.3,72.2,182.2,71.7z M182,68c-1.5,0.3-3.1,0.5-4.7,0.6c-0.8,0.1-1.7,0.2-2.5,0.3c-0.4,0.1-0.8,0.3-1.1,0.5
			c-0.2,0.2-0.4,0.5-0.4,0.8c0,0.4,0.3,0.8,0.9,1.1c0.8,0.3,1.7,0.5,2.5,0.4c1,0,2-0.1,2.9-0.4c0.7-0.2,1.4-0.6,1.9-1.1
			c0.3-0.5,0.5-1.1,0.5-1.7V68z"/>
		<path class="st0" d="M187.6,72.9V59.4h2.9v13.5H187.6z"/>
		<path class="st0" d="M217.6,68.2l3.1,0.4c-0.7,1.5-1.9,2.7-3.5,3.4c-1.9,0.8-4,1.2-6.1,1.2c-2.1,0.1-4.1-0.2-6.1-0.9
			c-1.4-0.5-2.7-1.4-3.6-2.6c-0.8-1-1.2-2.3-1.2-3.6c0-1.4,0.5-2.7,1.4-3.7c1.1-1.1,2.4-2,3.9-2.4c1.8-0.6,3.7-0.8,5.6-0.8
			c2-0.1,4,0.3,5.9,1c1.4,0.5,2.6,1.6,3.3,2.9l-3,0.4c-0.5-1-1.3-1.7-2.3-2.2c-1.2-0.5-2.5-0.7-3.9-0.7c-1.5,0-3.1,0.2-4.5,0.8
			c-1,0.4-1.9,1.1-2.5,2c-0.5,0.8-0.7,1.7-0.7,2.6c0,1.1,0.3,2.1,0.9,3c0.6,0.9,1.6,1.6,2.6,2c1.3,0.4,2.6,0.7,4,0.6
			c1.5,0,3-0.3,4.4-0.9C216.3,70.2,217.2,69.3,217.6,68.2z"/>
		<path class="st0" d="M221.4,68c0-1.7,1-3.3,2.6-4c1.7-0.8,3.5-1.1,5.3-1.1c2-0.1,3.9,0.4,5.7,1.3c1.4,0.7,2.2,2.1,2.2,3.7
			c0.1,1.1-0.3,2.2-1,3c-0.8,0.8-1.8,1.4-2.8,1.7c-1.3,0.4-2.7,0.6-4.1,0.6c-2,0.1-4-0.4-5.7-1.3C222.2,71.1,221.3,69.6,221.4,68z
			 M224.4,68c-0.1,1.1,0.4,2.2,1.4,2.8c1.1,0.7,2.3,1,3.5,0.9c1.2,0,2.5-0.3,3.5-0.9c1-0.6,1.5-1.7,1.5-2.9c0.1-1.1-0.5-2.2-1.4-2.8
			c-2.2-1.2-4.9-1.2-7.1,0C224.8,65.8,224.3,66.9,224.4,68z"/>
		<path class="st0" d="M238.9,72.9v-9.8h2.5v1.4c0.6-0.5,1.3-0.9,2.1-1.2c1-0.3,2-0.5,3-0.4c1,0,2.1,0.1,3.1,0.4
			c0.7,0.2,1.3,0.7,1.7,1.3c1.5-1.2,3.3-1.8,5.2-1.7c1.3-0.1,2.7,0.2,3.9,0.8c0.9,0.5,1.4,1.5,1.3,2.5v6.7h-2.8v-6.2
			c0-0.5-0.1-1-0.3-1.4c-0.2-0.3-0.6-0.6-1-0.7c-0.5-0.2-1.1-0.3-1.7-0.3c-1,0-2,0.2-3,0.7c-0.8,0.4-1.2,1.3-1.2,2.2v5.7h-2.9v-6.4
			c0-0.6-0.2-1.2-0.7-1.7c-0.7-0.4-1.5-0.6-2.3-0.6c-0.8,0-1.5,0.1-2.2,0.4c-0.6,0.2-1.1,0.6-1.5,1.1c-0.3,0.6-0.5,1.3-0.5,2v5.1
			L238.9,72.9z"/>
		<path class="st0" d="M264.3,72.9v-9.8h2.6v1.4c0.6-0.5,1.3-0.9,2.1-1.2c1-0.3,2-0.5,3-0.4c1,0,2.1,0.1,3.1,0.4
			c0.7,0.2,1.3,0.7,1.7,1.3c1.5-1.2,3.3-1.8,5.2-1.7c1.3-0.1,2.7,0.2,3.9,0.8c0.9,0.5,1.4,1.5,1.3,2.5v6.7h-2.8v-6.2
			c0-0.5-0.1-1-0.3-1.4c-0.2-0.3-0.6-0.6-1-0.7c-0.6-0.2-1.1-0.3-1.7-0.3c-1,0-2,0.2-3,0.7c-0.8,0.4-1.2,1.3-1.2,2.2v5.7h-2.9v-6.4
			c0-0.6-0.2-1.2-0.7-1.7c-0.7-0.4-1.5-0.6-2.3-0.6c-0.8,0-1.5,0.1-2.2,0.4c-0.6,0.2-1.1,0.6-1.5,1.1c-0.3,0.6-0.5,1.3-0.5,2v5.1
			L264.3,72.9z"/>
		<path class="st0" d="M301.3,69.8l3,0.2c-0.5,1.1-1.5,1.9-2.6,2.3c-1.5,0.6-3.2,0.9-4.8,0.8c-2,0.1-4.1-0.4-5.9-1.3
			c-1.4-0.7-2.2-2.2-2.2-3.7c0-1.6,0.8-3.1,2.2-3.8c1.7-1,3.7-1.5,5.7-1.4c1.9-0.1,3.8,0.4,5.5,1.3c1.3,0.8,2.1,2.2,2.1,3.7
			c0,0.1,0,0.2,0,0.4h-12.6c0.1,1,0.7,2,1.6,2.5c1.9,1,4.2,1.1,6.2,0.4C300.2,71,300.9,70.4,301.3,69.8z M291.9,67.1h9.4
			c-0.1-0.7-0.5-1.4-1.1-1.9c-1-0.7-2.3-1-3.5-1c-1.2,0-2.3,0.2-3.3,0.8C292.6,65.4,292,66.2,291.9,67.1z"/>
		<path class="st0" d="M306.2,72.9v-9.8h2.6v1.5c0.5-0.6,1.1-1.1,1.8-1.4c0.6-0.2,1.2-0.3,1.8-0.3c1,0,2,0.2,2.9,0.5l-1,1.5
			c-0.7-0.2-1.4-0.4-2.1-0.4c-0.6,0-1.1,0.1-1.7,0.3c-0.4,0.2-0.8,0.5-1.1,0.9c-0.3,0.6-0.5,1.3-0.5,1.9v5.1L306.2,72.9z"/>
		<path class="st0" d="M326.4,69.3l2.8,0.2c-0.4,1.2-1.2,2.1-2.4,2.6c-1.5,0.7-3,1-4.6,1c-1.9,0.1-3.9-0.4-5.6-1.3
			c-1.3-0.8-2.1-2.2-2.1-3.8c0-1,0.3-2,0.9-2.8c0.7-0.9,1.7-1.5,2.8-1.8c1.3-0.4,2.6-0.6,4-0.6c1.5-0.1,3.1,0.2,4.5,0.8
			c1,0.4,1.9,1.2,2.3,2.2l-2.8,0.2c-0.3-0.7-0.8-1.2-1.4-1.5c-0.8-0.4-1.6-0.5-2.4-0.5c-1.2-0.1-2.5,0.3-3.5,0.9
			c-0.9,0.6-1.4,1.7-1.3,2.8c-0.1,1.1,0.4,2.2,1.3,2.9c1,0.6,2.2,1,3.4,0.9c1,0,1.9-0.2,2.8-0.6C325.6,70.8,326.2,70.1,326.4,69.3z"
			/>
		<path class="st0" d="M341.5,69.8l3,0.2c-0.5,1.1-1.5,1.9-2.6,2.3c-1.5,0.6-3.2,0.9-4.8,0.8c-2,0.1-4.1-0.4-5.9-1.3
			c-1.4-0.7-2.2-2.2-2.2-3.7c0-1.6,0.8-3.1,2.2-3.8c1.7-1,3.7-1.4,5.7-1.4c1.9-0.1,3.8,0.4,5.5,1.3c1.3,0.8,2.2,2.2,2.1,3.7
			c0,0.1,0,0.2,0,0.4H332c0.1,1,0.7,2,1.6,2.5c1.9,1,4.2,1.1,6.2,0.4C340.5,71,341.1,70.4,341.5,69.8z M332.1,67.1h9.4
			c-0.1-0.7-0.5-1.4-1.1-1.9c-1-0.7-2.3-1-3.5-1c-1.2,0-2.3,0.2-3.3,0.8C332.8,65.4,332.2,66.2,332.1,67.1z"/>
		<path class="st0" d="M354.7,72.9V59.4h3.1v13.5H354.7z"/>
		<path class="st0" d="M361.2,72.9v-9.8h2.6v1.4c1.5-1.2,3.4-1.7,5.4-1.6c0.9,0,1.9,0.1,2.8,0.3c0.7,0.1,1.3,0.4,1.9,0.8
			c0.4,0.3,0.7,0.7,0.9,1.2c0.1,0.5,0.2,1.1,0.1,1.6v6H372V67c0-0.5-0.1-1.1-0.3-1.5c-0.3-0.4-0.7-0.7-1.2-0.8
			c-0.6-0.2-1.3-0.3-2-0.3c-1.1,0-2.2,0.2-3.1,0.7c-0.9,0.5-1.4,1.5-1.3,2.6v5.3L361.2,72.9z"/>
		<path class="st0" d="M376.5,70l2.8-0.3c0.2,0.7,0.7,1.2,1.3,1.5c0.9,0.4,2,0.6,3,0.5c1,0.1,2-0.1,2.9-0.5c0.6-0.3,1-0.7,1-1.1
			s-0.3-0.7-0.8-0.9c-1-0.3-1.9-0.5-2.9-0.6c-1.5-0.2-2.9-0.4-4.4-0.8c-0.7-0.2-1.3-0.5-1.8-0.9c-0.4-0.3-0.6-0.8-0.6-1.3
			c0-0.5,0.2-0.9,0.5-1.2c0.4-0.4,0.9-0.7,1.4-0.9c0.6-0.2,1.2-0.4,1.8-0.5c0.8-0.1,1.6-0.2,2.5-0.2c1.2,0,2.3,0.1,3.5,0.3
			c0.8,0.1,1.5,0.4,2.2,0.9c0.5,0.4,0.8,0.9,1,1.5l-2.8,0.2c-0.2-0.5-0.6-1-1.1-1.2c-0.8-0.3-1.7-0.5-2.6-0.4
			c-0.9-0.1-1.9,0.1-2.8,0.4c-0.6,0.2-0.8,0.6-0.8,0.9c0,0.2,0.1,0.5,0.4,0.6c0.3,0.2,0.7,0.4,1.1,0.4c0.3,0.1,1.1,0.2,2.5,0.4
			c2,0.3,3.4,0.6,4.2,0.8c0.7,0.1,1.3,0.4,1.9,0.9c0.4,0.3,0.7,0.9,0.7,1.4c0,0.6-0.3,1.2-0.8,1.6c-0.7,0.6-1.5,0.9-2.4,1.1
			c-1.2,0.3-2.4,0.4-3.5,0.4c-1.7,0.1-3.4-0.2-5-0.8C377.6,71.9,376.8,71,376.5,70z"/>
		<path class="st0" d="M392.3,76.7V63.1h2.6v1.3c0.6-0.5,1.3-0.9,2.1-1.1c0.9-0.3,1.9-0.4,2.8-0.4c1.3,0,2.6,0.2,3.8,0.7
			c1,0.3,1.9,1,2.5,1.8c1.2,1.6,1.1,3.7-0.1,5.3c-0.7,0.9-1.6,1.5-2.7,1.8c-1.2,0.4-2.5,0.6-3.7,0.6c-0.9,0-1.7-0.1-2.6-0.3
			c-0.7-0.2-1.3-0.5-1.9-0.9v4.8L392.3,76.7z M394.8,68.1c-0.1,1.1,0.4,2.2,1.3,2.8c0.9,0.6,2.1,0.9,3.2,0.9c1.2,0,2.3-0.3,3.3-0.9
			c0.9-0.7,1.4-1.8,1.4-2.9c0.1-1.1-0.4-2.2-1.3-2.8c-0.9-0.6-2-1-3.2-0.9c-1.2,0-2.3,0.3-3.2,1C395.3,65.9,394.8,66.9,394.8,68.1z"
			/>
		<path class="st0" d="M408.7,61.3v-1.9h2.9v1.9L408.7,61.3z M408.7,72.9v-9.8h2.9v9.8L408.7,72.9z"/>
		<path class="st0" d="M414.2,72.9v-9.8h2.6v1.5c0.5-0.6,1.1-1.1,1.8-1.4c0.6-0.2,1.2-0.3,1.8-0.3c1,0,2,0.2,2.9,0.5l-1,1.5
			c-0.7-0.2-1.4-0.4-2.1-0.4c-0.6,0-1.1,0.1-1.7,0.3c-0.4,0.2-0.8,0.5-1.1,0.9c-0.3,0.6-0.5,1.3-0.5,1.9v5.1L414.2,72.9z"/>
		<path class="st0" d="M434.5,71.7c-1,0.5-2,0.9-3,1.1c-1,0.2-2.1,0.3-3.1,0.3c-1.5,0.1-2.9-0.2-4.3-0.8c-0.8-0.3-1.4-1.1-1.5-2
			c0-0.5,0.2-1,0.6-1.3c0.4-0.4,0.9-0.8,1.5-1c0.7-0.3,1.3-0.4,2-0.5c0.6-0.1,1.4-0.2,2.5-0.2c1.7-0.1,3.4-0.3,5.1-0.6
			c0-0.2,0-0.4,0-0.4c0-0.6-0.3-1.2-0.8-1.4c-1-0.4-2.1-0.6-3.2-0.6c-1-0.1-2,0.1-3,0.4c-0.6,0.3-1.2,0.8-1.4,1.5L423,66
			c0.2-0.7,0.7-1.3,1.2-1.7c0.8-0.5,1.6-0.8,2.5-1c1.3-0.2,2.5-0.4,3.8-0.3c1.2,0,2.4,0.1,3.5,0.3c0.7,0.1,1.4,0.4,2,0.7
			c0.4,0.3,0.7,0.7,0.9,1.1c0.1,0.5,0.2,1,0.1,1.5v2.2c0,1,0,2,0.2,2.9c0.1,0.4,0.4,0.9,0.7,1.2h-3
			C434.7,72.6,434.5,72.2,434.5,71.7z M434.2,68c-1.5,0.3-3.1,0.5-4.7,0.6c-0.8,0-1.7,0.2-2.5,0.3c-0.4,0.1-0.8,0.3-1.1,0.5
			c-0.2,0.2-0.4,0.5-0.4,0.8c0,0.4,0.3,0.8,0.9,1.1c0.8,0.3,1.7,0.5,2.5,0.4c1,0,2-0.1,2.9-0.4c0.7-0.2,1.3-0.6,1.9-1.1
			c0.3-0.5,0.5-1.1,0.5-1.7L434.2,68z"/>
		<path class="st0" d="M446.1,71.4l0.4,1.5c-0.7,0.1-1.4,0.1-2.2,0.2c-0.8,0-1.6-0.1-2.4-0.3c-0.5-0.1-0.9-0.4-1.2-0.8
			c-0.3-0.6-0.4-1.3-0.4-2v-5.6h-2.1v-1.3h2.1v-2.4l2.8-1v3.4h2.9v1.3h-2.9v5.7c0,0.3,0,0.6,0.1,0.9c0.1,0.2,0.3,0.3,0.5,0.3
			c0.3,0.1,0.7,0.1,1,0.1C445.2,71.5,445.6,71.5,446.1,71.4z"/>
		<path class="st0" d="M447.3,61.3v-1.9h2.9v1.9L447.3,61.3z M447.3,72.9v-9.8h2.9v9.8L447.3,72.9z"/>
		<path class="st0" d="M451.8,68c0-1.7,1-3.3,2.6-4c1.7-0.8,3.5-1.1,5.3-1.1c2-0.1,3.9,0.4,5.7,1.3c1.4,0.7,2.2,2.1,2.2,3.7
			c0.1,1.1-0.3,2.2-1,3c-0.8,0.8-1.8,1.4-2.8,1.7c-1.3,0.4-2.7,0.6-4.1,0.6c-2,0.1-4-0.4-5.7-1.3C452.6,71.1,451.7,69.6,451.8,68z
			 M454.8,68c-0.1,1.1,0.5,2.2,1.4,2.8c2.2,1.3,4.9,1.3,7.1,0c0.9-0.6,1.5-1.7,1.4-2.9c0.1-1.1-0.5-2.2-1.4-2.8
			c-2.2-1.2-4.9-1.2-7.1,0C455.2,65.8,454.7,66.9,454.8,68L454.8,68z"/>
		<path class="st0" d="M469.3,72.9v-9.8h2.6v1.4c1.5-1.2,3.4-1.7,5.4-1.6c0.9,0,1.9,0.1,2.8,0.3c0.7,0.1,1.3,0.4,1.9,0.8
			c0.4,0.3,0.7,0.7,0.9,1.2c0.1,0.5,0.2,1.1,0.2,1.6v6h-2.8V67c0-0.5-0.1-1.1-0.3-1.5c-0.3-0.4-0.7-0.7-1.2-0.8
			c-0.6-0.2-1.3-0.3-2-0.3c-1.1,0-2.2,0.2-3.2,0.7c-0.9,0.5-1.4,1.5-1.3,2.6v5.3L469.3,72.9z"/>
	</g>
	<g id="logo-2">
		<path class="st1" d="M114.9,15.5v20h10.6v-8.2c0-3.3,0.4-4.6,1.6-5.4s3.3-1.2,6.5-1.2s4.9,0.3,5.9,1.1s1.1,1.3,1.1,4.4v9.3h10.6
			v-8.2c0-3.3,0.4-4.4,1.6-5.4s3.1-1.3,6.3-1.3s4.9,0.3,6,1.1s1.1,1.1,1.2,4.4v9.3H177v-9.3c0-5.2-0.6-6.8-3-8.6s-6-2.6-11.8-2.6
			c-7,0-10.5,1.2-12.3,4.2c-2.3-3-6.1-4.2-12.9-4.2c-6.3,0-9.9,1.1-11.5,3.5H125v-3L114.9,15.5z M200.9,15c-9.7,0-13.8,0.5-16.5,1.8
			c-2.8,1.4-3.7,3.3-3.7,8c0,5.8,0.7,7.7,3.3,9.2s6.2,2,16.9,2s14.1-0.4,16.8-2s3.3-3.4,3.3-8.9c0-5-0.8-6.8-3.7-8.3
			C214.8,15.5,210.7,15,200.9,15L200.9,15z M201,20.6c2.3-0.1,4.6,0.1,6.9,0.6c2,0.5,2.6,1.5,2.6,4.2c0,4.2-1.4,5-9.4,5
			c-2.4,0.1-4.8-0.1-7.1-0.6c-1.9-0.5-2.4-1.4-2.4-4.1C191.4,21.5,192.9,20.7,201,20.6L201,20.6z M348.5,27.5
			c-0.5,2.3-2.3,2.9-8.5,2.9c-2.1,0.1-4.3-0.1-6.4-0.6c-1.9-0.5-2.5-1.6-2.5-4.2c0-4.2,1.4-5,8.8-5c6.2,0,8.4,0.8,8.7,3h10.9
			c-0.2-3.8-1-5.3-3.2-6.6c-2.7-1.5-6.9-2-16.3-2c-9.6,0-13.3,0.5-16,2c-2.5,1.4-3.4,3.6-3.4,8.4c0,5.3,0.9,7.4,3.7,8.8
			s6.5,1.9,15.2,1.9c11.2,0,14.7-0.5,17.4-2.5c1.9-1.3,2.5-2.8,2.6-6.1L348.5,27.5z M382.6,15c-9.7,0-13.8,0.5-16.5,1.8
			c-2.8,1.4-3.7,3.3-3.7,8c0,5.8,0.7,7.7,3.3,9.2s6.2,2,16.9,2s14.1-0.4,16.8-2s3.3-3.4,3.3-8.9c0-5-0.8-6.8-3.7-8.3
			C396.5,15.5,392.4,15,382.6,15z M382.7,20.6c2.3-0.1,4.6,0.1,6.9,0.6c2,0.5,2.6,1.5,2.6,4.2c0,4.2-1.4,5-9.4,5
			c-2.4,0.1-4.8-0.1-7.2-0.6c-1.9-0.5-2.4-1.4-2.4-4.1C373.1,21.4,374.6,20.7,382.7,20.6L382.7,20.6z M406.7,15.5v20h10.6v-8.2
			c0-3.1,0.3-4.2,1.3-5.2s3-1.4,5.4-1.4c4.4,0,5.6,0.8,5.6,3.8h10V23c0-6-2.9-8-11.5-8c-6,0-9,1-11,3.5h-0.5v-3L406.7,15.5z
			 M442.7,43.8h10.6V33h0.5c2.1,2.4,4.8,3.1,12,3.1c14.2,0,16.9-1.7,16.9-10.4c0-5.1-0.7-7-2.9-8.4c-2.3-1.6-6.1-2.3-13.5-2.3
			c-8.2,0-11.2,0.8-13,3.2h-0.5v-2.7h-10.1L442.7,43.8L442.7,43.8z M463.1,20.6c7.6,0,9,0.7,9,4.6c0,2.6-0.4,3.7-1.6,4.3
			s-3.7,0.9-7.8,0.9c-7.9,0-9.4-0.8-9.4-4.7C453.3,21.2,454.6,20.6,463.1,20.6L463.1,20.6z"/>
		<path class="st1" d="M225.1,7.3v28.2h10v-2.6h0.5c2.1,2.5,4.8,3.1,12.7,3.1c7.3,0,11.3-0.6,13.6-2.1s3.1-3.5,3.1-8.5
			c0-5.2-0.8-7.1-3.6-8.6c-2.4-1.3-6.4-1.9-13.4-1.9s-9.8,0.7-11.9,3.2h-0.5V7.3H225.1z M245.1,20.6c2.3-0.1,4.6,0.1,6.9,0.5
			c1.9,0.5,2.5,1.5,2.5,4.1c0,2.5-0.4,3.6-1.6,4.2s-3.7,0.9-7.6,0.9c-2.3,0-4.6-0.1-6.9-0.5c-2.2-0.5-2.8-1.4-2.8-4.3
			c0-2.6,0.5-3.6,2-4.2C238.9,20.8,241.4,20.6,245.1,20.6L245.1,20.6z M269.2,15.5v20h10.6v-20H269.2z M269.2,7.3V13h10.6V7.3H269.2
			z M284.5,15.5v5.1h17l-18.3,9.8v5.2h34.6v-5.2h-18.1l17.5-9.1v-5.7H284.5z"/>
		<path class="st1" d="M52.8,0c29.1,0,52.9,10.8,52.9,24c0,2.2-0.7,4.4-1.9,6.3c-0.4-0.6-0.9-1.1-1.4-1.6c-2.3-2.1-6-2.9-12.5-2.9
			c-7.7,0-11.7,1.3-14.3,4.8c-1.9-3.4-5.8-4.8-13.4-4.8c-6.9,0-11.1,1.2-13.3,4h-0.6l0.6-3.4H38l-3.5,20.1C14.4,43,0,34.2,0,24
			C0,10.8,23.7,0,52.8,0z M92.1,40c-5.6,2.7-11.5,4.6-17.6,5.8l1.1-6.1c0.6-3.7,1.3-5,2.8-6.1s3.7-1.4,7.2-1.4s5.3,0.4,6.4,1.2
			s1,1.2,0.4,5L92.1,40z M62.5,47.5c-3.1,0.3-6.4,0.4-9.7,0.4c-2.3,0-4.7-0.1-6.9-0.2l1.4-8c0.7-3.7,1.3-5.2,2.8-6.1
			s3.9-1.4,7.4-1.4s5.3,0.4,6.2,1.2s1,1.5,0.4,5C64.1,38.4,62.5,47.5,62.5,47.5z"/>
		<g id="copyright">
			<path id="circle" class="st0" d="M493.4,0.1c-4.1,0-7.3,3.3-7.3,7.3s3.3,7.3,7.3,7.3s7.3-3.3,7.3-7.3
				C500.7,3.4,497.4,0.1,493.4,0.1L493.4,0.1z M493.4,13.6c-3.4,0-6.1-2.7-6.1-6.1s2.7-6.1,6.1-6.1s6.1,2.7,6.1,6.1
				C499.5,10.8,496.8,13.6,493.4,13.6C493.4,13.6,493.4,13.6,493.4,13.6z"/>
			<path class="st0" d="M491.4,10.8H490l1.5-6.7h3.1c0.4,0,0.8,0,1.2,0.2c0.3,0.1,0.5,0.3,0.7,0.6c0.2,0.3,0.3,0.6,0.3,1
				c0,0.5-0.2,1-0.5,1.4c-0.4,0.4-1,0.7-1.6,0.7c0.2,0.2,0.4,0.4,0.5,0.6c0.4,0.7,0.8,1.5,1.1,2.2h-1.5c-0.1-0.4-0.4-1-0.7-1.8
				c-0.1-0.3-0.3-0.6-0.6-0.9C493.1,8,492.9,8,492.6,8h-0.6L491.4,10.8z M492.2,7h0.8c0.5,0,1,0,1.5-0.1c0.2-0.1,0.4-0.2,0.6-0.4
				c0.1-0.2,0.2-0.4,0.2-0.6c0-0.2-0.1-0.4-0.3-0.5c-0.3-0.1-0.5-0.1-0.8-0.1h-1.6L492.2,7z"/>
		</g>
	</g>
</g>
</svg>
